<svg width="285" height="56" viewBox="0 0 285 56" fill="none" xmlns="http://www.w3.org/2000/svg">
<path d="M33 21.0003C33.0001 20.8106 32.9462 20.6249 32.8448 20.4647C32.7434 20.3046 32.5985 20.1766 32.4271 20.0956C32.2557 20.0147 32.0649 19.9842 31.8768 20.0077C31.6888 20.0312 31.5113 20.1077 31.365 20.2283L20.3658 29.2899C19.6423 29.8859 20.064 31.0619 21.0014 31.0619H26.59C26.8049 31.0619 27.0174 31.1081 27.213 31.1975C27.4085 31.2868 27.5825 31.4173 27.7233 31.5799L31.2451 35.6527C31.8507 36.3527 33 35.9237 33 34.9977V21.0003ZM21.0014 30.0619L32.0006 21.0003V34.9977L28.4788 30.9259C28.2443 30.6548 27.9543 30.4373 27.6284 30.2882C27.3025 30.1391 26.9483 30.062 26.59 30.0619H21.0014Z" fill="white"/>
<path d="M51.34 22.74V20.38H62.46V22.74H58.18V35H55.62V22.74H51.34ZM65.3172 35.26C63.2172 35.26 61.9372 34.04 61.9372 32.18C61.9372 30.36 63.2572 29.22 65.5972 29.04L68.5572 28.82V28.6C68.5572 27.26 67.7572 26.72 66.5172 26.72C65.0772 26.72 64.2772 27.32 64.2772 28.36H62.1972C62.1972 26.22 63.9572 24.82 66.6372 24.82C69.2972 24.82 70.9372 26.26 70.9372 29V35H68.7972L68.6172 33.54C68.1972 34.56 66.8572 35.26 65.3172 35.26ZM66.1172 33.42C67.6172 33.42 68.5772 32.52 68.5772 31V30.48L66.5172 30.64C64.9972 30.78 64.4172 31.28 64.4172 32.08C64.4172 32.98 65.0172 33.42 66.1172 33.42ZM75.7942 35H73.3742V20.12H75.7942V29.26L79.6342 25.12H82.6942L78.9342 29.04L82.6142 35H79.8142L77.2342 30.84L75.7942 32.34V35ZM88.0667 35.26C85.1267 35.26 83.0667 33.12 83.0667 30.06C83.0667 26.96 85.0867 24.82 87.9867 24.82C90.9467 24.82 92.8267 26.8 92.8267 29.88V30.62L85.3867 30.64C85.5667 32.38 86.4867 33.26 88.1067 33.26C89.4467 33.26 90.3267 32.74 90.6067 31.8H92.8667C92.4467 33.96 90.6467 35.26 88.0667 35.26ZM88.0067 26.82C86.5667 26.82 85.6867 27.6 85.4467 29.08H90.4067C90.4067 27.72 89.4667 26.82 88.0067 26.82ZM103.11 35.26C101.01 35.26 99.7302 34.04 99.7302 32.18C99.7302 30.36 101.05 29.22 103.39 29.04L106.35 28.82V28.6C106.35 27.26 105.55 26.72 104.31 26.72C102.87 26.72 102.07 27.32 102.07 28.36H99.9902C99.9902 26.22 101.75 24.82 104.43 24.82C107.09 24.82 108.73 26.26 108.73 29V35H106.59L106.41 33.54C105.99 34.56 104.65 35.26 103.11 35.26ZM103.91 33.42C105.41 33.42 106.37 32.52 106.37 31V30.48L104.31 30.64C102.79 30.78 102.21 31.28 102.21 32.08C102.21 32.98 102.81 33.42 103.91 33.42ZM113.567 35H111.127V25.12H113.387L113.587 26.4C114.207 25.4 115.407 24.82 116.747 24.82C119.227 24.82 120.507 26.36 120.507 28.92V35H118.067V29.5C118.067 27.84 117.247 27.04 115.987 27.04C114.487 27.04 113.567 28.08 113.567 29.68V35ZM129.915 35H127.255L132.535 20.38H135.155L140.435 35H137.735L136.555 31.62H131.095L129.915 35ZM133.515 24.74L131.855 29.46H135.815L134.135 24.74C134.015 24.36 133.875 23.92 133.835 23.62C133.775 23.9 133.655 24.34 133.515 24.74ZM141.908 39.58V25.12H144.168L144.328 26.62C144.928 25.48 146.228 24.82 147.728 24.82C150.508 24.82 152.348 26.84 152.348 29.94C152.348 33.02 150.668 35.26 147.728 35.26C146.248 35.26 144.968 34.68 144.348 33.68V39.58H141.908ZM144.368 30.06C144.368 31.84 145.468 33.06 147.148 33.06C148.868 33.06 149.888 31.82 149.888 30.06C149.888 28.3 148.868 27.04 147.148 27.04C145.468 27.04 144.368 28.28 144.368 30.06ZM154.291 39.58V25.12H156.551L156.711 26.62C157.311 25.48 158.611 24.82 160.111 24.82C162.891 24.82 164.731 26.84 164.731 29.94C164.731 33.02 163.051 35.26 160.111 35.26C158.631 35.26 157.351 34.68 156.731 33.68V39.58H154.291ZM156.751 30.06C156.751 31.84 157.851 33.06 159.531 33.06C161.251 33.06 162.271 31.82 162.271 30.06C162.271 28.3 161.251 27.04 159.531 27.04C157.851 27.04 156.751 28.28 156.751 30.06ZM166.094 30.04C166.094 26.96 168.314 24.84 171.374 24.84C174.434 24.84 176.654 26.96 176.654 30.04C176.654 33.12 174.434 35.24 171.374 35.24C168.314 35.24 166.094 33.12 166.094 30.04ZM168.534 30.04C168.534 31.84 169.694 33.06 171.374 33.06C173.054 33.06 174.214 31.84 174.214 30.04C174.214 28.24 173.054 27.02 171.374 27.02C169.694 27.02 168.534 28.24 168.534 30.04ZM179.808 23.14C178.968 23.14 178.308 22.48 178.308 21.66C178.308 20.84 178.968 20.2 179.808 20.2C180.608 20.2 181.268 20.84 181.268 21.66C181.268 22.48 180.608 23.14 179.808 23.14ZM178.588 35V25.12H181.028V35H178.588ZM185.989 35H183.549V25.12H185.809L186.009 26.4C186.629 25.4 187.829 24.82 189.169 24.82C191.649 24.82 192.929 26.36 192.929 28.92V35H190.489V29.5C190.489 27.84 189.669 27.04 188.409 27.04C186.909 27.04 185.989 28.08 185.989 29.68V35ZM198.686 35H196.246V27.16H194.346V25.12H196.246V22.04H198.686V25.12H200.606V27.16H198.686V35ZM204.563 35H202.123V25.12H204.363L204.563 26.28C205.063 25.46 206.063 24.82 207.483 24.82C208.983 24.82 210.023 25.56 210.543 26.7C211.043 25.56 212.203 24.82 213.703 24.82C216.103 24.82 217.423 26.26 217.423 28.54V35H215.003V29.18C215.003 27.76 214.243 27.02 213.083 27.02C211.903 27.02 211.003 27.78 211.003 29.4V35H208.563V29.16C208.563 27.78 207.823 27.04 206.663 27.04C205.503 27.04 204.563 27.8 204.563 29.4V35ZM224.239 35.26C221.299 35.26 219.239 33.12 219.239 30.06C219.239 26.96 221.259 24.82 224.159 24.82C227.119 24.82 228.999 26.8 228.999 29.88V30.62L221.559 30.64C221.739 32.38 222.659 33.26 224.279 33.26C225.619 33.26 226.499 32.74 226.779 31.8H229.039C228.619 33.96 226.819 35.26 224.239 35.26ZM224.179 26.82C222.739 26.82 221.859 27.6 221.619 29.08H226.579C226.579 27.72 225.639 26.82 224.179 26.82ZM233.391 35H230.951V25.12H233.211L233.411 26.4C234.031 25.4 235.231 24.82 236.571 24.82C239.051 24.82 240.331 26.36 240.331 28.92V35H237.891V29.5C237.891 27.84 237.071 27.04 235.811 27.04C234.311 27.04 233.391 28.08 233.391 29.68V35ZM246.089 35H243.649V27.16H241.749V25.12H243.649V22.04H246.089V25.12H248.009V27.16H246.089V35Z" fill="white"/>
<rect x="0.5" y="0.5" width="284" height="55" rx="9.5" stroke="white"/>
</svg>
