<svg width="27" height="27" viewBox="0 0 27 27" fill="none" xmlns="http://www.w3.org/2000/svg">
<circle cx="13.5" cy="13.5" r="13.5" fill="#18A0A9"/>
<path d="M9.715 12.1548C10.795 14.2744 12.535 16.0045 14.6575 17.0905L16.3075 15.4428C16.51 15.2406 16.81 15.1732 17.0725 15.263C17.9125 15.5402 18.82 15.69 19.75 15.69C20.1625 15.69 20.5 16.027 20.5 16.4389V19.0528C20.5 19.4648 20.1625 19.8018 19.75 19.8018C12.7075 19.8018 7 14.1021 7 7.06929C7 6.65735 7.3375 6.32031 7.75 6.32031H10.375C10.7875 6.32031 11.125 6.65735 11.125 7.06929C11.125 8.0055 11.275 8.90427 11.5525 9.74312C11.635 10.0053 11.575 10.2974 11.365 10.5071L9.715 12.1548Z" fill="#E0FFFC"/>
</svg>
