<svg width="59" height="60" viewBox="0 0 59 60" fill="none" xmlns="http://www.w3.org/2000/svg">
<circle cx="29.5" cy="30" r="29.5" fill="#18A0A9"/>
<path fill-rule="evenodd" clip-rule="evenodd" d="M28.7773 11.6459C28.1909 11.876 28.0945 12.7666 28.6363 13.0412C29.4304 13.4568 30.2023 12.5439 29.6159 11.8908C29.4081 11.6607 29.0148 11.5494 28.7773 11.6459ZM24.918 12.1579C19.5891 13.5681 15.2844 17.9989 13.9707 23.4317C13.8297 23.9958 13.748 24.2036 13.6219 24.2853C13.2656 24.5228 12.9539 24.8345 12.7832 25.1314C12.568 25.5025 10.2895 31.1505 10.141 31.67C10.0742 31.915 10.0371 32.4196 10.0445 33.1915V34.3419L10.9129 37.422C11.4398 39.2849 11.7812 40.6282 11.7812 40.836C11.7812 41.0439 11.4473 42.3353 10.8906 44.2649C10.4008 45.9646 10 47.4786 10 47.6271C10 47.9759 10.0965 48.154 10.3711 48.295C10.6754 48.4509 17.4367 48.4657 17.8152 48.3025C18.075 48.1985 18.0898 48.1763 18.6316 46.8032C18.9879 45.9052 19.4035 45.2224 20.0641 44.4728C20.9027 43.5228 21.4742 42.454 21.6598 41.504C21.7117 41.2368 21.7785 40.9993 21.8008 40.9622C21.8305 40.9325 22.1645 41.0587 22.5504 41.2368C23.8863 41.8677 25.5859 42.3501 27.1816 42.5431C28.0352 42.647 30.0391 42.647 30.8926 42.5431C32.5031 42.3501 34.1879 41.8751 35.5016 41.2517C35.9691 41.029 36.2141 40.9474 36.2289 41.0068C36.2437 41.0587 36.2957 41.2962 36.3477 41.5411C36.5332 42.4689 37.1121 43.545 37.9359 44.4728C38.5965 45.2224 39.0121 45.9052 39.3684 46.8032C39.9102 48.1763 39.925 48.1985 40.1848 48.3025C40.5633 48.4657 47.3246 48.4509 47.6289 48.295C47.9035 48.154 48 47.9759 48 47.6271C48 47.4786 47.5992 45.9646 47.1094 44.2575C46.5602 42.3501 46.2188 41.0364 46.2188 40.8286C46.2188 40.6282 46.5602 39.2775 47.0871 37.422L47.9555 34.3419V33.1544C47.9629 32.2118 47.9332 31.8778 47.8293 31.5364C47.5621 30.6903 45.3281 25.2798 45.1203 24.9903C45.009 24.8271 44.7789 24.597 44.6156 24.4708C44.3336 24.2556 44.3113 24.211 44.1109 23.3946C43.0645 19.0603 40.0215 15.2528 36.0063 13.2415C34.6555 12.5661 32.6293 11.913 32.1246 11.9946C31.7461 12.054 31.5234 12.3286 31.5234 12.7517C31.5234 13.1673 31.7312 13.4048 32.1988 13.5235C33.8391 13.9317 35.843 14.8372 37.0379 15.6982C39.0195 17.1306 40.4371 18.7708 41.491 20.8712C41.966 21.8138 42.582 23.4317 42.582 23.736C42.582 23.788 42.493 23.8548 42.3816 23.8845C40.9937 24.1739 40.1328 25.2501 40.1328 26.6677C40.1328 27.254 40.1477 27.306 40.9566 29.3544C41.1491 29.8435 41.3295 30.3004 41.4745 30.6675L41.4751 30.6691C41.6708 31.1646 41.8016 31.496 41.8102 31.5216C41.8324 31.5661 41.5207 31.5958 40.9715 31.5958C40.1773 31.5958 40.0586 31.6181 39.6727 31.7962C39.2125 32.0114 38.6559 32.479 38.4332 32.8501C38.2922 33.0802 36.6965 37.6966 36.4516 38.5798L36.4498 38.5861C36.3254 39.0326 36.3229 39.0414 35.7984 39.3442C31.7164 41.6747 26.2316 41.6525 22.1645 39.2775C21.734 39.0251 21.6375 38.9286 21.6004 38.7357C21.5707 38.6021 21.1402 37.2884 20.643 35.804C20.0418 34.0525 19.6484 32.9985 19.5074 32.7907C18.8691 31.863 17.7262 31.3657 16.6723 31.5587C16.4199 31.6032 16.2047 31.6329 16.1898 31.6181C16.1824 31.6032 16.5535 30.6235 17.0211 29.4435L17.8746 27.2911L17.8449 26.5489C17.8227 25.9181 17.793 25.7474 17.6223 25.4134C17.2289 24.6638 16.6055 24.1368 15.8707 23.9439C15.559 23.8622 15.5293 23.84 15.5441 23.6544C15.5961 22.979 16.4719 20.9157 17.2215 19.7208C18.2457 18.0732 19.8711 16.4329 21.541 15.3642C22.6246 14.6665 24.2574 13.9466 25.4746 13.6275C26.15 13.4567 26.3059 13.3454 26.4172 12.9966C26.5285 12.6032 26.3578 12.2247 25.9941 12.0689C25.9732 12.0604 25.9541 12.0525 25.9363 12.0451C25.8691 12.0173 25.8215 11.9975 25.772 11.9878C25.6517 11.9641 25.52 11.9989 25.0684 12.1182C25.0218 12.1305 24.9717 12.1438 24.918 12.1579ZM15.8262 25.6509C15.9672 25.7622 16.1379 25.9552 16.2047 26.0814C16.4422 26.5341 16.3754 26.7939 15.3957 29.2653C14.8836 30.5567 14.4086 31.8185 14.3418 32.0708C14.1711 32.7388 14.1266 33.6071 14.223 34.29C14.3047 34.854 15.2621 38.2458 15.4254 38.5427C15.6332 38.9435 16.316 38.988 16.65 38.6318C16.9172 38.3423 16.8801 38.0232 16.3457 36.2271C16.0785 35.3364 15.8633 34.4903 15.8633 34.3419C15.8633 33.9931 16.1008 33.5403 16.3902 33.34C16.9023 32.9689 17.5406 33.0282 18.0082 33.481C18.2605 33.7259 18.357 33.9485 19.077 36.1009C20.0566 38.988 20.168 39.411 20.168 40.2349C20.168 41.6153 19.8785 42.2314 18.3941 44.0126C17.8078 44.7177 17.4887 45.2892 17.1621 46.1798L16.9395 46.8107L14.3566 46.8329L11.7738 46.8478L11.8184 46.6919C11.848 46.6028 12.2043 45.3782 12.6125 43.9607L13.3547 41.3927L13.3176 40.6876C13.2879 40.0716 13.184 39.604 12.4195 36.9099C11.6105 34.0079 11.5586 33.7927 11.5586 33.1618C11.5586 32.7907 11.6031 32.3157 11.6625 32.1005C11.8035 31.5661 14.0004 26.1482 14.1785 25.8884C14.5273 25.3911 15.3289 25.2724 15.8262 25.6509ZM43.3687 25.5396C43.5395 25.6138 43.7398 25.7771 43.8215 25.8884C44.0293 26.2001 46.2559 31.7368 46.3672 32.2341C46.4191 32.479 46.4488 32.9317 46.4266 33.3474C46.3969 33.956 46.2855 34.431 45.5508 37.0138C44.816 39.6189 44.7121 40.0716 44.6824 40.6876L44.6453 41.3927L45.3875 43.9607C45.7957 45.3782 46.152 46.6028 46.1816 46.6919L46.2262 46.8478L43.6434 46.8329L41.0605 46.8107L40.8379 46.1798C40.5113 45.2892 40.1922 44.7177 39.6059 44.0126C38.3961 42.5579 38.1066 42.0755 37.8617 41.1329C37.7281 40.6208 37.7504 39.7525 37.9137 39.1661C38.1957 38.1196 39.7395 33.7333 39.8879 33.5626C40.118 33.2806 40.5262 33.1025 40.927 33.1025C41.5504 33.1025 42.1367 33.7036 42.1367 34.3493C42.1367 34.4978 41.9215 35.3513 41.6543 36.2419C41.1199 38.038 41.0828 38.3423 41.35 38.6318C41.684 38.988 42.3668 38.9435 42.5746 38.5501C42.7379 38.2384 43.6879 34.8689 43.777 34.3048C43.8809 33.5626 43.8289 32.6868 43.6285 31.9669C43.5469 31.6775 43.0719 30.4306 42.5746 29.1837C41.6246 26.7939 41.5578 26.5341 41.7953 26.0814C42.0996 25.495 42.7676 25.265 43.3687 25.5396ZM26.0387 18.986C26.1203 18.8821 26.2984 18.7634 26.4246 18.7263C26.7883 18.6224 31.1375 18.6372 31.4492 18.7411C31.9465 18.9118 31.9688 19.038 31.9688 21.6653V23.9884H34.3512C35.8355 23.9884 36.7855 24.0181 36.8746 24.0626C37.216 24.2482 37.2383 24.4189 37.2383 26.9942C37.2383 29.5103 37.2234 29.6142 36.9117 29.8665C36.7707 29.9853 36.5184 30.0001 34.366 30.0001H31.9688V32.2935C31.9688 33.7333 31.9391 34.661 31.8871 34.8095C31.7313 35.2696 31.7164 35.2696 28.8961 35.2696H26.3355L26.1277 35.0915L25.9199 34.9134L25.8977 32.4567L25.8754 30.0001H23.4633H21.0437L20.8285 29.7849L20.6133 29.5696V26.9942V24.4189L20.8285 24.2036L21.0437 23.9884H23.4633H25.8828V21.5837C25.8828 19.2755 25.8902 19.179 26.0387 18.986ZM30.4102 25.0794V22.645V20.2032H28.9258H27.4414V22.556C27.4414 25.1536 27.434 25.1982 26.9961 25.4134C26.766 25.5321 26.4766 25.547 24.4578 25.547H22.1719V26.9942V28.4341L24.584 28.4564L26.9961 28.4786L27.1965 28.6864L27.4043 28.8868L27.4266 31.336L27.4488 33.7853H28.9258H30.4102V31.3509C30.4102 28.9833 30.4176 28.9091 30.566 28.7458C30.6477 28.6567 30.8035 28.5528 30.9074 28.5083C31.0039 28.4712 32.1246 28.4415 33.3863 28.4415H35.6797V26.9942V25.547H33.4605C32.2434 25.547 31.1449 25.5247 31.0113 25.5024C30.8852 25.4728 30.6996 25.3689 30.5957 25.2649L30.4102 25.0794Z" fill="white"/>
</svg>
