<svg width="156" height="27" viewBox="0 0 156 27" fill="none" xmlns="http://www.w3.org/2000/svg">
<path d="M5.18096 26.7373L7.38203 17.198L0 10.782L9.7524 9.93331L13.545 0.937256L17.3376 9.93331L27.09 10.782L19.708 17.198L21.909 26.7373L13.545 21.6791L5.18096 26.7373Z" fill="#FFC567"/>
<path d="M37.271 26.7373L39.4721 17.198L32.09 10.782L41.8424 9.93331L45.635 0.937256L49.4276 9.93331L59.18 10.782L51.798 17.198L53.9991 26.7373L45.635 21.6791L37.271 26.7373Z" fill="#FFC567"/>
<path d="M69.361 26.7373L71.562 17.198L64.18 10.782L73.9324 9.93331L77.725 0.937256L81.5176 9.93331L91.27 10.782L83.888 17.198L86.089 26.7373L77.725 21.6791L69.361 26.7373Z" fill="#FFC567"/>
<path d="M101.451 26.7373L103.652 17.198L96.27 10.782L106.022 9.93331L109.815 0.937256L113.608 9.93331L123.36 10.782L115.978 17.198L118.179 26.7373L109.815 21.6791L101.451 26.7373Z" fill="#FFC567"/>
<path d="M133.541 26.7373L135.742 17.198L128.36 10.782L138.112 9.93331L141.905 0.937256L145.698 9.93331L155.45 10.782L148.068 17.198L150.269 26.7373L141.905 21.6791L133.541 26.7373Z" fill="#FFC567"/>
</svg>
